<svg xmlns="http://www.w3.org/2000/svg" viewBox="0 0 100 100">
  <!-- Background circle -->
  <circle cx="50" cy="50" r="48" fill="#2C5F2D" stroke="#FFD700" stroke-width="2"/>
  
  <!-- Open book shape -->
  <path d="M 30 35 Q 30 32 33 32 L 47 32 Q 50 32 50 35 L 50 68 Q 50 70 47 70 L 33 70 Q 30 70 30 68 Z" 
        fill="#F5F5DC" stroke="#8B4513" stroke-width="1"/>
  <path d="M 70 35 Q 70 32 67 32 L 53 32 Q 50 32 50 35 L 50 68 Q 50 70 53 70 L 67 70 Q 70 70 70 68 Z" 
        fill="#F5F5DC" stroke="#8B4513" stroke-width="1"/>
  
  <!-- Book spine shadow -->
  <line x1="50" y1="32" x2="50" y2="70" stroke="#8B4513" stroke-width="2"/>
  
  <!-- Decorative lines on pages (representing text) -->
  <line x1="35" y1="40" x2="45" y2="40" stroke="#2C5F2D" stroke-width="0.8" opacity="0.6"/>
  <line x1="35" y1="45" x2="45" y2="45" stroke="#2C5F2D" stroke-width="0.8" opacity="0.6"/>
  <line x1="35" y1="50" x2="45" y2="50" stroke="#2C5F2D" stroke-width="0.8" opacity="0.6"/>
  <line x1="35" y1="55" x2="45" y2="55" stroke="#2C5F2D" stroke-width="0.8" opacity="0.6"/>
  <line x1="35" y1="60" x2="45" y2="60" stroke="#2C5F2D" stroke-width="0.8" opacity="0.6"/>
  
  <line x1="55" y1="40" x2="65" y2="40" stroke="#2C5F2D" stroke-width="0.8" opacity="0.6"/>
  <line x1="55" y1="45" x2="65" y2="45" stroke="#2C5F2D" stroke-width="0.8" opacity="0.6"/>
  <line x1="55" y1="50" x2="65" y2="50" stroke="#2C5F2D" stroke-width="0.8" opacity="0.6"/>
  <line x1="55" y1="55" x2="65" y2="55" stroke="#2C5F2D" stroke-width="0.8" opacity="0.6"/>
  <line x1="55" y1="60" x2="65" y2="60" stroke="#2C5F2D" stroke-width="0.8" opacity="0.6"/>
  
  <!-- Decorative Islamic star at top -->
  <path d="M 50 20 L 51.5 24 L 55.5 24 L 52.5 26.5 L 53.5 30.5 L 50 28 L 46.5 30.5 L 47.5 26.5 L 44.5 24 L 48.5 24 Z" 
        fill="#FFD700" stroke="#8B6914" stroke-width="0.5"/>
</svg>